# xmcd
# 
# Track frame offsets:
#     150
#     19005
#     43352
#     60610
#     78155
#     100430
#     128230
#     147447
#     169742
#     206475
# 
# Disc length: 3012
# 
# Revision: 0
# Processed by: cddbd v1.5.2PL0 Copyright (c) Steve Scherf et al.
# Submitted via: fre:ac v1.0.17
# 
DISCID=8b0bc20a
DTITLE=The Mutt Brothers - Real Good Thing
DYEAR=1999
DGENRE=Blues
TTITLE0=Hear Me Moan
TTITLE1=Back To School
TTITLE2=Real Good Thing
TTITLE3=Bought A Shirt
TTITLE4=Bridge I Can't Burn
TTITLE5=In My Dreams
TTITLE6=One Way Train
TTITLE7=The Way It's Supposed To BE
TTITLE8=Think About IT
TTITLE9=Life We Choose
EXTD=
EXTT0=
EXTT1=
EXTT2=
EXTT3=
EXTT4=
EXTT5=
EXTT6=
EXTT7=
EXTT8=
EXTT9=
PLAYORDER=
